<svg id="Layer_1" data-name="Layer 1" xmlns="http://www.w3.org/2000/svg" xmlns:xlink="http://www.w3.org/1999/xlink" viewBox="0 0 352.5 261.02"><defs><style>.cls-1{fill:url(#linear-gradient);}.cls-2{fill:url(#linear-gradient-2);}.cls-3{fill:url(#radial-gradient);}.cls-10,.cls-4,.cls-5,.cls-9{stroke:#000;}.cls-4,.cls-5{stroke-linecap:round;stroke-linejoin:round;stroke-width:0.71px;}.cls-10,.cls-5{fill:none;}.cls-6{fill:url(#radial-gradient-2);}.cls-7{fill:url(#radial-gradient-3);}.cls-8{fill:url(#radial-gradient-4);}.cls-10,.cls-9{stroke-miterlimit:10;}.cls-9{fill:url(#linear-gradient-3);}</style><linearGradient id="linear-gradient" x1="987.16" y1="481.28" x2="1079.03" y2="481.28" gradientTransform="matrix(1, 0, 0, -1, 0, 1080)" gradientUnits="userSpaceOnUse"><stop offset="0" stop-color="#fff"/><stop offset="0.79"/></linearGradient><linearGradient id="linear-gradient-2" x1="987.16" y1="598.72" x2="1079.03" y2="598.72" xlink:href="#linear-gradient"/><radialGradient id="radial-gradient" cx="970.48" cy="540.01" r="87.7" gradientTransform="matrix(1, 0, 0, -1, 0, 1080)" gradientUnits="userSpaceOnUse"><stop offset="0" stop-color="#fff"/><stop offset="1"/></radialGradient><radialGradient id="radial-gradient-2" cx="1003.68" cy="572.44" r="7.5" gradientTransform="matrix(1, 0, 0, -1, -775.16, 670.51)" xlink:href="#linear-gradient"/><radialGradient id="radial-gradient-3" cx="879.2" cy="575" r="10.49" gradientTransform="matrix(1, 0, 0, -1, 0, 1080)" gradientUnits="userSpaceOnUse"><stop offset="0" stop-color="#fff"/><stop offset="0" stop-color="#f6f6f6"/><stop offset="0.79"/></radialGradient><radialGradient id="radial-gradient-4" cx="786.11" cy="575" r="10.49" gradientTransform="matrix(1, 0, 0, -1, 0, 1080)" xlink:href="#linear-gradient"/><linearGradient id="linear-gradient-3" x1="996.19" y1="536.62" x2="1011.19" y2="536.62" gradientTransform="matrix(1, 0, 0, -1, 0, 1080)" gradientUnits="userSpaceOnUse"><stop offset="0" stop-color="#fff"/><stop offset="0.79"/></linearGradient></defs><g id="LWPOLYLINE"><path class="cls-1" d="M1072.16,606.14a15.71,15.71,0,1,0-17.67-26h0a70,70,0,0,1-67.33,29.11A80,80,0,0,0,1072.16,606.14Z" transform="translate(-775.16 -409.49)"/></g><g id="LWPOLYLINE-2" data-name="LWPOLYLINE"><path class="cls-2" d="M987.16,470.72a70,70,0,0,1,67.33,29.11,15.71,15.71,0,0,0,17.67-26A80,80,0,0,0,987.16,470.72Z" transform="translate(-775.16 -409.49)"/></g><g id="LWPOLYLINE-3" data-name="LWPOLYLINE"><path class="cls-3" d="M1043.82,451.56a90,90,0,1,0,0,176.89,100,100,0,1,1,0-176.89Z" transform="translate(-775.16 -409.49)"/></g><g id="LWPOLYLINE-4" data-name="LWPOLYLINE"><path class="cls-4" d="M817.66,520v60a5,5,0,0,0,5,5h10a5,5,0,0,0,5-5V517.5a2.5,2.5,0,0,1,2.5-2.5h5a2.5,2.5,0,0,1,2.5,2.5V580a5,5,0,0,0,5,5h32.5a5,5,0,0,0,5-5V570a5,5,0,0,0-5-5h-12.5a5,5,0,0,1-5-5v-5a5,5,0,0,1,5-5h12.5a5,5,0,0,0,5-5V535a5,5,0,0,0-5-5h-12.5a5,5,0,0,1-5-5V500a5,5,0,0,0-5-5h-60a5,5,0,0,0-5,5v10a5,5,0,0,0,5,5h10A5,5,0,0,1,817.66,520Z" transform="translate(-775.16 -409.49)"/></g><g id="ARC"><path class="cls-5" d="M817.66,580a5,5,0,0,0,5,5" transform="translate(-775.16 -409.49)"/></g><g id="CIRCLE"><circle class="cls-6" cx="228.52" cy="98.07" r="7.5"/></g><g id="LWPOLYLINE-5" data-name="LWPOLYLINE"><path class="cls-7" d="M870.16,500a7.52,7.52,0,0,0-1.91-5h11.91a10,10,0,1,1-10,10Z" transform="translate(-775.16 -409.49)"/></g><g id="LWPOLYLINE-6" data-name="LWPOLYLINE"><path class="cls-8" d="M795.16,500a7.52,7.52,0,0,1,1.91-5H785.16a10,10,0,1,0,10,10Z" transform="translate(-775.16 -409.49)"/></g><g id="LWPOLYLINE-7" data-name="LWPOLYLINE"><path class="cls-9" d="M1003.68,522.71a8.13,8.13,0,0,1,1.47.14,7.5,7.5,0,0,1,5.89,8.82,170.06,170.06,0,0,0-6.86,31.94.51.51,0,0,1-.44.44.5.5,0,0,1-.55-.44,169.28,169.28,0,0,0-6.86-31.94,7.18,7.18,0,0,1-.14-1.47,7.49,7.49,0,0,1,7.49-7.49" transform="translate(-775.16 -409.49)"/></g><g id="LWPOLYLINE-8" data-name="LWPOLYLINE"><path class="cls-4" d="M975.82,527a10,10,0,0,1-17.32,0l-4-6.88A6.87,6.87,0,0,0,942.62,527q9.24,18,20.21,35a5,5,0,0,0,8.66,0q10.95-17,20.21-35a6.87,6.87,0,0,0-11.91-6.87Z" transform="translate(-775.16 -409.49)"/></g><g id="ARC-2" data-name="ARC"><path class="cls-10" d="M893.37,618.29a130,130,0,1,0,0-156.58" transform="translate(-775.16 -409.49)"/></g><g id="LWPOLYLINE-9" data-name="LWPOLYLINE"><path class="cls-4" d="M1054.58,526.9a5,5,0,0,0-3.81-8.24h-32.25a5,5,0,0,0,0,10h9.8A5,5,0,0,1,1032,537l-17.23,19.15a5,5,0,0,0,3.71,8.34h32.92a5,5,0,0,0,0-10H1041a5,5,0,0,1-3.71-8.34L1054.48,527" transform="translate(-775.16 -409.49)"/></g><g id="LWPOLYLINE-10" data-name="LWPOLYLINE"><path class="cls-4" d="M893.37,618.29v25.49h25.49A130.41,130.41,0,0,1,893.37,618.29Z" transform="translate(-775.16 -409.49)"/></g><g id="LWPOLYLINE-11" data-name="LWPOLYLINE"><path class="cls-4" d="M1075.45,643.78h25.49V618.29A129.86,129.86,0,0,1,1075.45,643.78Z" transform="translate(-775.16 -409.49)"/></g><g id="LWPOLYLINE-12" data-name="LWPOLYLINE"><path class="cls-4" d="M1100.94,461.71V436.22h-25.49A129.86,129.86,0,0,1,1100.94,461.71Z" transform="translate(-775.16 -409.49)"/></g><g id="LWPOLYLINE-13" data-name="LWPOLYLINE"><path class="cls-4" d="M918.87,436.22H893.38v25.49A129.86,129.86,0,0,1,918.87,436.22Z" transform="translate(-775.16 -409.49)"/></g></svg>